<svg width="1066" height="400" viewBox="0 0 1066 400" fill="none" xmlns="http://www.w3.org/2000/svg">
<circle cx="200" cy="200" r="190" stroke="#1C6E8C" stroke-width="20"/>
<path d="M474.32 90.625L476.641 89.6952L476.012 88.125H474.32V90.625ZM507.789 174.156L505.468 175.086L507.789 180.878L510.11 175.086L507.789 174.156ZM541.258 90.625V88.125H539.566L538.937 89.6952L541.258 90.625ZM558.766 90.625H561.266V88.125H558.766V90.625ZM558.766 193V195.5H561.266V193H558.766ZM545.266 193H542.766V195.5H545.266V193ZM545.266 153.133L542.767 153.059L542.766 153.096V153.133H545.266ZM546.531 110.102L549.03 110.175L544.214 109.162L546.531 110.102ZM512.922 193V195.5H514.606L515.239 193.939L512.922 193ZM502.586 193L500.269 193.94L500.902 195.5H502.586V193ZM469.047 110.312L471.364 109.373L466.548 110.39L469.047 110.312ZM470.383 153.133H472.883V153.094L472.882 153.055L470.383 153.133ZM470.383 193V195.5H472.883V193H470.383ZM456.883 193H454.383V195.5H456.883V193ZM456.883 90.625V88.125H454.383V90.625H456.883ZM472 91.5548L505.468 175.086L510.11 173.226L476.641 89.6952L472 91.5548ZM510.11 175.086L543.578 91.5548L538.937 89.6952L505.468 173.226L510.11 175.086ZM541.258 93.125H558.766V88.125H541.258V93.125ZM556.266 90.625V193H561.266V90.625H556.266ZM558.766 190.5H545.266V195.5H558.766V190.5ZM547.766 193V153.133H542.766V193H547.766ZM547.765 153.206L549.03 110.175L544.032 110.028L542.767 153.059L547.765 153.206ZM544.214 109.162L510.605 192.061L515.239 193.939L548.848 111.041L544.214 109.162ZM512.922 190.5H502.586V195.5H512.922V190.5ZM504.903 192.06L471.364 109.373L466.73 111.252L500.269 193.94L504.903 192.06ZM466.548 110.39L467.884 153.211L472.882 153.055L471.546 110.235L466.548 110.39ZM467.883 153.133V193H472.883V153.133H467.883ZM470.383 190.5H456.883V195.5H470.383V190.5ZM459.383 193V90.625H454.383V193H459.383ZM456.883 93.125H474.32V88.125H456.883V93.125ZM586.961 184.281L585.15 186.005L585.156 186.011L586.961 184.281ZM581.547 134.5L579.3 133.403L579.297 133.411L581.547 134.5ZM593.641 120.578L594.996 122.679L595.001 122.676L593.641 120.578ZM641.805 158.688V161.188H644.305V158.688H641.805ZM590.266 158.688V156.188H587.702L587.766 158.75L590.266 158.688ZM596.805 176.898L594.946 178.57L594.954 178.58L594.963 178.589L596.805 176.898ZM632.875 173.523L634.411 171.551L632.431 170.009L630.897 171.995L632.875 173.523ZM640.82 179.711L642.916 181.074L644.168 179.15L642.356 177.738L640.82 179.711ZM597.297 131.969L599.12 133.679L599.125 133.674L599.13 133.668L597.297 131.969ZM590.688 148L588.206 147.696L587.863 150.5H590.688V148ZM628.797 148V150.5H631.297V148H628.797ZM628.797 147.016H631.297V146.945L631.293 146.874L628.797 147.016ZM623.453 131.688L621.569 133.33L621.574 133.336L621.579 133.342L623.453 131.688ZM612.133 191.906C602.424 191.906 594.712 188.756 588.766 182.551L585.156 186.011C592.147 193.306 601.216 196.906 612.133 196.906V191.906ZM588.772 182.558C582.835 176.319 579.758 167.915 579.758 157.07H574.758C574.758 168.914 578.15 178.649 585.15 186.005L588.772 182.558ZM579.758 157.07V154.68H574.758V157.07H579.758ZM579.758 154.68C579.758 147.453 581.125 141.108 583.797 135.589L579.297 133.411C576.25 139.704 574.758 146.812 574.758 154.68H579.758ZM583.793 135.597C586.516 130.019 590.253 125.74 594.996 122.679L592.285 118.478C586.715 122.073 582.39 127.074 579.3 133.403L583.793 135.597ZM595.001 122.676C599.81 119.556 604.965 118.016 610.516 118.016V113.016C603.973 113.016 597.877 114.85 592.28 118.481L595.001 122.676ZM610.516 118.016C619.801 118.016 626.735 121.042 631.665 126.899L635.491 123.679C629.452 116.505 621.011 113.016 610.516 113.016V118.016ZM631.665 126.899C636.637 132.806 639.305 141.475 639.305 153.273H644.305C644.305 140.79 641.488 130.804 635.491 123.679L631.665 126.899ZM639.305 153.273V158.688H644.305V153.273H639.305ZM641.805 156.188H590.266V161.188H641.805V156.188ZM587.766 158.75C587.966 166.72 590.299 173.401 594.946 178.57L598.664 175.227C594.967 171.115 592.941 165.655 592.765 158.625L587.766 158.75ZM594.963 178.589C599.675 183.72 605.697 186.289 612.836 186.289V181.289C607.038 181.289 602.372 179.264 598.646 175.207L594.963 178.589ZM612.836 186.289C617.768 186.289 622.121 185.281 625.775 183.131L623.24 178.822C620.52 180.422 617.091 181.289 612.836 181.289V186.289ZM625.775 183.131C629.253 181.086 632.279 178.383 634.853 175.052L630.897 171.995C628.69 174.851 626.138 177.117 623.24 178.822L625.775 183.131ZM631.339 175.496L639.284 181.683L642.356 177.738L634.411 171.551L631.339 175.496ZM638.725 178.347C632.859 187.362 624.128 191.906 612.133 191.906V196.906C625.637 196.906 636.032 191.653 642.916 181.074L638.725 178.347ZM610.516 123.703C604.571 123.703 599.5 125.914 595.463 130.269L599.13 133.668C602.219 130.336 605.96 128.703 610.516 128.703V123.703ZM595.474 130.258C591.444 134.553 589.093 140.453 588.206 147.696L593.169 148.304C593.969 141.766 596.025 136.978 599.12 133.679L595.474 130.258ZM590.688 150.5H628.797V145.5H590.688V150.5ZM631.297 148V147.016H626.297V148H631.297ZM631.293 146.874C630.898 139.912 629.003 134.195 625.327 130.033L621.579 133.342C624.278 136.398 625.946 140.9 626.301 147.157L631.293 146.874ZM625.338 130.045C621.615 125.774 616.578 123.703 610.516 123.703V128.703C615.328 128.703 618.917 130.288 621.569 133.33L625.338 130.045ZM703.891 193L701.655 194.118L702.346 195.5H703.891V193ZM702.062 184.984L704.544 184.682L703.908 179.463L700.261 183.251L702.062 184.984ZM661.914 188.078L660.25 189.944L660.259 189.952L660.269 189.961L661.914 188.078ZM663.742 153.484L665.212 155.507L665.214 155.505L663.742 153.484ZM701.852 146.875V149.375H704.352V146.875H701.852ZM697.773 130.07L696.006 131.838L696.013 131.846L696.021 131.853L697.773 130.07ZM669.367 138.016V140.516H671.867V138.016H669.367ZM656.289 138.016H653.789V140.516H656.289V138.016ZM660.297 127.047L658.309 125.53L658.306 125.534L660.297 127.047ZM671.266 118.609L670.25 116.325L670.242 116.329L671.266 118.609ZM707.125 122.125L705.466 123.995L705.476 124.004L707.125 122.125ZM714.859 140.195H717.359V140.165L717.359 140.134L714.859 140.195ZM717.531 191.875H720.031V191.358L719.826 190.884L717.531 191.875ZM717.531 193V195.5H720.031V193H717.531ZM701.852 171.695L704.1 172.788L704.352 172.271V171.695H701.852ZM701.852 156.086H704.352V153.586H701.852V156.086ZM706.127 191.882C705.587 190.803 705.012 188.516 704.544 184.682L699.581 185.287C700.051 189.14 700.694 192.197 701.655 194.118L706.127 191.882ZM700.261 183.251C694.665 189.064 688.088 191.906 680.406 191.906V196.906C689.506 196.906 697.366 193.468 703.864 186.718L700.261 183.251ZM680.406 191.906C673.403 191.906 667.856 189.95 663.559 186.196L660.269 189.961C665.628 194.644 672.41 196.906 680.406 196.906V191.906ZM663.578 186.213C659.339 182.43 657.242 177.723 657.242 171.906H652.242C652.242 179.121 654.927 185.195 660.25 189.944L663.578 186.213ZM657.242 171.906C657.242 164.721 659.909 159.36 665.212 155.507L662.273 151.462C655.575 156.328 652.242 163.248 652.242 171.906H657.242ZM665.214 155.505C670.678 151.524 678.57 149.375 689.195 149.375V144.375C677.977 144.375 668.901 146.632 662.27 151.464L665.214 155.505ZM689.195 149.375H701.852V144.375H689.195V149.375ZM704.352 146.875V140.898H699.352V146.875H704.352ZM704.352 140.898C704.352 135.82 702.814 131.518 699.526 128.287L696.021 131.853C698.171 133.966 699.352 136.883 699.352 140.898H704.352ZM699.541 128.303C696.199 124.961 691.454 123.492 685.75 123.492V128.492C690.639 128.492 693.91 129.742 696.006 131.838L699.541 128.303ZM685.75 123.492C680.673 123.492 676.231 124.782 672.583 127.504L675.573 131.511C678.207 129.546 681.546 128.492 685.75 128.492V123.492ZM672.583 127.504C668.937 130.225 666.867 133.752 666.867 138.016H671.867C671.867 135.623 672.938 133.478 675.573 131.511L672.583 127.504ZM669.367 135.516H656.289V140.516H669.367V135.516ZM658.789 138.016C658.789 134.851 659.89 131.714 662.287 128.56L658.306 125.534C655.36 129.411 653.789 133.586 653.789 138.016H658.789ZM662.284 128.564C664.721 125.371 668.028 122.803 672.29 120.89L670.242 116.329C665.316 118.54 661.311 121.598 658.309 125.53L662.284 128.564ZM672.281 120.894C676.574 118.986 681.31 118.016 686.523 118.016V113.016C680.674 113.016 675.238 114.108 670.25 116.325L672.281 120.894ZM686.523 118.016C694.877 118.016 701.085 120.11 705.466 123.995L708.784 120.255C703.228 115.328 695.701 113.016 686.523 113.016V118.016ZM705.476 124.004C709.833 127.827 712.187 133.142 712.36 140.256L717.359 140.134C717.157 131.873 714.355 125.142 708.774 120.246L705.476 124.004ZM712.359 140.195V175.211H717.359V140.195H712.359ZM712.359 175.211C712.359 182.367 713.266 188.303 715.236 192.866L719.826 190.884C718.234 187.197 717.359 182.024 717.359 175.211H712.359ZM715.031 191.875V193H720.031V191.875H715.031ZM717.531 190.5H703.891V195.5H717.531V190.5ZM682.305 185.586C686.837 185.586 691.133 184.408 695.156 182.087L692.657 177.756C689.367 179.655 685.928 180.586 682.305 180.586V185.586ZM695.156 182.087C699.189 179.761 702.214 176.667 704.1 172.788L699.603 170.602C698.208 173.473 695.936 175.864 692.657 177.756L695.156 182.087ZM704.352 171.695V156.086H699.352V171.695H704.352ZM701.852 153.586H691.656V158.586H701.852V153.586ZM691.656 153.586C683.525 153.586 677.017 154.761 672.464 157.426C667.703 160.213 665.25 164.537 665.25 170.078H670.25C670.25 166.291 671.781 163.619 674.989 161.742C678.405 159.743 683.85 158.586 691.656 158.586V153.586ZM665.25 170.078C665.25 174.772 666.848 178.706 670.215 181.55L673.442 177.731C671.371 175.981 670.25 173.54 670.25 170.078H665.25ZM670.215 181.55C673.47 184.301 677.571 185.586 682.305 185.586V180.586C678.507 180.586 675.624 179.574 673.442 177.731L670.215 181.55ZM749.383 193V195.5H751.883V193H749.383ZM736.375 193H733.875V195.5H736.375V193ZM736.375 85V82.5H733.875V85H736.375ZM749.383 85H751.883V82.5H749.383V85ZM749.383 190.5H736.375V195.5H749.383V190.5ZM738.875 193V85H733.875V193H738.875ZM736.375 87.5H749.383V82.5H736.375V87.5ZM746.883 85V193H751.883V85H746.883Z" fill="#1C6E8C"/>
<path d="M153.918 125.812L157.631 124.325L156.624 121.812H153.918V125.812ZM200.402 241.828L196.689 243.316L200.402 252.583L204.115 243.316L200.402 241.828ZM246.887 125.812V121.812H244.18L243.174 124.325L246.887 125.812ZM271.203 125.812H275.203V121.812H271.203V125.812ZM271.203 268V272H275.203V268H271.203ZM252.453 268H248.453V272H252.453V268ZM252.453 212.629L248.455 212.511L248.453 212.57V212.629H252.453ZM254.211 152.863L258.209 152.981L250.504 151.36L254.211 152.863ZM207.531 268V272H210.226L211.238 269.503L207.531 268ZM193.176 268L189.469 269.503L190.482 272H193.176V268ZM146.594 153.156L150.3 151.653L142.596 153.281L146.594 153.156ZM148.449 212.629H152.449V212.567L152.447 212.504L148.449 212.629ZM148.449 268V272H152.449V268H148.449ZM129.699 268H125.699V272H129.699V268ZM129.699 125.812V121.812H125.699V125.812H129.699ZM150.205 127.3L196.689 243.316L204.115 240.34L157.631 124.325L150.205 127.3ZM204.115 243.316L250.6 127.3L243.174 124.325L196.689 240.34L204.115 243.316ZM246.887 129.812H271.203V121.812H246.887V129.812ZM267.203 125.812V268H275.203V125.812H267.203ZM271.203 264H252.453V272H271.203V264ZM256.453 268V212.629H248.453V268H256.453ZM256.451 212.747L258.209 152.981L250.213 152.746L248.455 212.511L256.451 212.747ZM250.504 151.36L203.824 266.497L211.238 269.503L257.918 154.366L250.504 151.36ZM207.531 264H193.176V272H207.531V264ZM196.882 266.497L150.3 151.653L142.887 154.66L189.469 269.503L196.882 266.497ZM142.596 153.281L144.451 212.754L152.447 212.504L150.592 153.032L142.596 153.281ZM144.449 212.629V268H152.449V212.629H144.449ZM148.449 264H129.699V272H148.449V264ZM133.699 268V125.812H125.699V268H133.699ZM129.699 129.812H153.918V121.812H129.699V129.812Z" fill="#1C6E8C" fill-opacity="0.45"/>
<path d="M470.383 302.922V300.422H467.883V302.922H470.383ZM470.383 343V345.5H472.883V343H470.383ZM456.883 343H454.383V345.5H456.883V343ZM456.883 240.625V238.125H454.383V240.625H456.883ZM520.938 249.203L519.261 251.058L519.268 251.064L520.938 249.203ZM521.148 294.906L522.782 296.798L522.784 296.797L521.148 294.906ZM470.383 291.883H467.883V294.383H470.383V291.883ZM511.234 286.82L512.884 288.699L512.89 288.693L512.897 288.688L511.234 286.82ZM495.414 251.734L495.466 249.235L495.44 249.234H495.414V251.734ZM470.383 251.734V249.234H467.883V251.734H470.383ZM467.883 302.922V343H472.883V302.922H467.883ZM470.383 340.5H456.883V345.5H470.383V340.5ZM459.383 343V240.625H454.383V343H459.383ZM456.883 243.125H494.641V238.125H456.883V243.125ZM494.641 243.125C505.423 243.125 513.521 245.871 519.261 251.058L522.614 247.348C515.697 241.098 506.264 238.125 494.641 238.125V243.125ZM519.268 251.064C525.058 256.258 528 263.123 528 271.914H533C533 261.862 529.567 253.586 522.607 247.342L519.268 251.064ZM528 271.914C528 281.289 525.086 288.197 519.513 293.015L522.784 296.797C529.68 290.834 533 282.414 533 271.914H528ZM519.514 293.014C513.938 297.83 505.725 300.422 494.5 300.422V305.422C506.431 305.422 515.984 302.67 522.782 296.798L519.514 293.014ZM494.5 300.422H470.383V305.422H494.5V300.422ZM470.383 294.383H494.641V289.383H470.383V294.383ZM494.641 294.383C502.219 294.383 508.427 292.612 512.884 288.699L509.585 284.942C506.354 287.778 501.5 289.383 494.641 289.383V294.383ZM512.897 288.688C517.401 284.678 519.5 279 519.5 272.055H514.5C514.5 277.954 512.756 282.119 509.572 284.953L512.897 288.688ZM519.5 272.055C519.5 265.388 517.373 259.818 512.957 255.618L509.511 259.241C512.784 262.354 514.5 266.534 514.5 272.055H519.5ZM512.957 255.618C508.552 251.428 502.622 249.385 495.466 249.235L495.362 254.234C501.612 254.365 506.229 256.119 509.511 259.241L512.957 255.618ZM495.414 249.234H470.383V254.234H495.414V249.234ZM467.883 251.734V291.883H472.883V251.734H467.883ZM559.82 343V345.5H562.32V343H559.82ZM546.812 343H544.312V345.5H546.812V343ZM546.812 235V232.5H544.312V235H546.812ZM559.82 235H562.32V232.5H559.82V235ZM559.82 340.5H546.812V345.5H559.82V340.5ZM549.312 343V235H544.312V343H549.312ZM546.812 237.5H559.82V232.5H546.812V237.5ZM557.32 235V343H562.32V235H557.32ZM627.672 343L625.436 344.118L626.127 345.5H627.672V343ZM625.844 334.984L628.325 334.682L627.689 329.463L624.043 333.251L625.844 334.984ZM585.695 338.078L584.031 339.944L584.041 339.952L584.05 339.961L585.695 338.078ZM587.523 303.484L588.993 305.507L588.996 305.505L587.523 303.484ZM625.633 296.875V299.375H628.133V296.875H625.633ZM621.555 280.07L619.787 281.838L619.795 281.846L619.802 281.853L621.555 280.07ZM593.148 288.016V290.516H595.648V288.016H593.148ZM580.07 288.016H577.57V290.516H580.07V288.016ZM584.078 277.047L582.091 275.53L582.088 275.534L584.078 277.047ZM595.047 268.609L594.032 266.325L594.023 266.329L595.047 268.609ZM630.906 272.125L629.248 273.995L629.257 274.004L630.906 272.125ZM638.641 290.195H641.141V290.165L641.14 290.134L638.641 290.195ZM641.312 341.875H643.812V341.358L643.608 340.884L641.312 341.875ZM641.312 343V345.5H643.812V343H641.312ZM625.633 321.695L627.881 322.788L628.133 322.271V321.695H625.633ZM625.633 306.086H628.133V303.586H625.633V306.086ZM629.908 341.882C629.369 340.803 628.793 338.516 628.325 334.682L623.362 335.287C623.832 339.14 624.475 342.197 625.436 344.118L629.908 341.882ZM624.043 333.251C618.446 339.064 611.869 341.906 604.188 341.906V346.906C613.287 346.906 621.147 343.468 627.645 336.718L624.043 333.251ZM604.188 341.906C597.184 341.906 591.637 339.95 587.34 336.196L584.05 339.961C589.41 344.644 596.191 346.906 604.188 346.906V341.906ZM587.36 336.213C583.12 332.43 581.023 327.723 581.023 321.906H576.023C576.023 329.121 578.708 335.195 584.031 339.944L587.36 336.213ZM581.023 321.906C581.023 314.721 583.69 309.36 588.993 305.507L586.054 301.462C579.357 306.328 576.023 313.248 576.023 321.906H581.023ZM588.996 305.505C594.459 301.524 602.351 299.375 612.977 299.375V294.375C601.758 294.375 592.682 296.632 586.051 301.464L588.996 305.505ZM612.977 299.375H625.633V294.375H612.977V299.375ZM628.133 296.875V290.898H623.133V296.875H628.133ZM628.133 290.898C628.133 285.82 626.595 281.518 623.307 278.287L619.802 281.853C621.952 283.966 623.133 286.883 623.133 290.898H628.133ZM623.322 278.303C619.981 274.961 615.236 273.492 609.531 273.492V278.492C614.421 278.492 617.691 279.742 619.787 281.838L623.322 278.303ZM609.531 273.492C604.454 273.492 600.012 274.782 596.364 277.504L599.355 281.511C601.988 279.546 605.327 278.492 609.531 278.492V273.492ZM596.364 277.504C592.718 280.225 590.648 283.752 590.648 288.016H595.648C595.648 285.623 596.719 283.478 599.355 281.511L596.364 277.504ZM593.148 285.516H580.07V290.516H593.148V285.516ZM582.57 288.016C582.57 284.851 583.671 281.714 586.069 278.56L582.088 275.534C579.141 279.411 577.57 283.586 577.57 288.016H582.57ZM586.066 278.564C588.502 275.371 591.809 272.803 596.071 270.89L594.023 266.329C589.097 268.54 585.092 271.598 582.091 275.53L586.066 278.564ZM596.062 270.894C600.356 268.986 605.092 268.016 610.305 268.016V263.016C604.455 263.016 599.019 264.108 594.032 266.325L596.062 270.894ZM610.305 268.016C618.658 268.016 624.866 270.11 629.248 273.995L632.565 270.255C627.009 265.328 619.482 263.016 610.305 263.016V268.016ZM629.257 274.004C633.614 277.827 635.968 283.142 636.141 290.256L641.14 290.134C640.938 281.873 638.136 275.142 632.555 270.246L629.257 274.004ZM636.141 290.195V325.211H641.141V290.195H636.141ZM636.141 325.211C636.141 332.367 637.047 338.303 639.017 342.866L643.608 340.884C642.015 337.197 641.141 332.024 641.141 325.211H636.141ZM638.812 341.875V343H643.812V341.875H638.812ZM641.312 340.5H627.672V345.5H641.312V340.5ZM606.086 335.586C610.618 335.586 614.915 334.408 618.937 332.087L616.438 327.756C613.148 329.655 609.71 330.586 606.086 330.586V335.586ZM618.937 332.087C622.97 329.761 625.996 326.667 627.881 322.788L623.384 320.602C621.989 323.473 619.718 325.864 616.438 327.756L618.937 332.087ZM628.133 321.695V306.086H623.133V321.695H628.133ZM625.633 303.586H615.438V308.586H625.633V303.586ZM615.438 303.586C607.307 303.586 600.799 304.761 596.245 307.426C591.485 310.213 589.031 314.537 589.031 320.078H594.031C594.031 316.291 595.562 313.619 598.771 311.742C602.186 309.743 607.631 308.586 615.438 308.586V303.586ZM589.031 320.078C589.031 324.772 590.629 328.706 593.996 331.55L597.223 327.731C595.152 325.981 594.031 323.54 594.031 320.078H589.031ZM593.996 331.55C597.251 334.301 601.352 335.586 606.086 335.586V330.586C602.288 330.586 599.405 329.574 597.223 327.731L593.996 331.55ZM671.336 266.922L673.834 266.812L673.728 264.422H671.336V266.922ZM671.758 276.484L669.26 276.595L669.555 283.273L673.715 278.04L671.758 276.484ZM718.867 292.727H721.367V292.717L721.367 292.707L718.867 292.727ZM718.867 343V345.5H721.367V343H718.867ZM705.859 343H703.359V345.5H705.859V343ZM705.859 292.656H708.359V292.646L708.359 292.635L705.859 292.656ZM702.062 280.492L700.231 282.193L700.239 282.202L700.247 282.211L702.062 280.492ZM672.039 288.789L669.792 287.694L669.539 288.212V288.789H672.039ZM672.039 343V345.5H674.539V343H672.039ZM659.031 343H656.531V345.5H659.031V343ZM659.031 266.922V264.422H656.531V266.922H659.031ZM668.838 267.032L669.26 276.595L674.255 276.374L673.834 266.812L668.838 267.032ZM673.715 278.04C679.051 271.327 685.923 268.016 694.539 268.016V263.016C684.405 263.016 676.09 267.017 669.801 274.929L673.715 278.04ZM694.539 268.016C702.108 268.016 707.376 270.137 710.816 273.985C714.307 277.889 716.299 283.993 716.367 292.746L721.367 292.707C721.294 283.319 719.162 275.818 714.543 270.652C709.874 265.43 703.048 263.016 694.539 263.016V268.016ZM716.367 292.727V343H721.367V292.727H716.367ZM718.867 340.5H705.859V345.5H718.867V340.5ZM708.359 343V292.656H703.359V343H708.359ZM708.359 292.635C708.31 286.837 706.975 282.046 703.878 278.774L700.247 282.211C702.119 284.189 703.315 287.507 703.359 292.678L708.359 292.635ZM703.894 278.791C700.804 275.463 696.181 274.055 690.602 274.055V279.055C695.428 279.055 698.446 280.272 700.231 282.193L703.894 278.791ZM690.602 274.055C685.911 274.055 681.694 275.315 678.05 277.887L680.934 281.972C683.665 280.044 686.855 279.055 690.602 279.055V274.055ZM678.05 277.887C674.504 280.391 671.749 283.676 669.792 287.694L674.287 289.884C675.891 286.59 678.105 283.969 680.934 281.972L678.05 277.887ZM669.539 288.789V343H674.539V288.789H669.539ZM672.039 340.5H659.031V345.5H672.039V340.5ZM661.531 343V266.922H656.531V343H661.531ZM659.031 269.422H671.336V264.422H659.031V269.422ZM750.789 266.922L753.287 266.812L753.181 264.422H750.789V266.922ZM751.211 276.484L748.713 276.595L749.008 283.273L753.168 278.04L751.211 276.484ZM798.32 292.727H800.82V292.717L800.82 292.707L798.32 292.727ZM798.32 343V345.5H800.82V343H798.32ZM785.312 343H782.812V345.5H785.312V343ZM785.312 292.656H787.812V292.646L787.812 292.635L785.312 292.656ZM781.516 280.492L779.684 282.193L779.692 282.202L779.7 282.211L781.516 280.492ZM751.492 288.789L749.245 287.694L748.992 288.212V288.789H751.492ZM751.492 343V345.5H753.992V343H751.492ZM738.484 343H735.984V345.5H738.484V343ZM738.484 266.922V264.422H735.984V266.922H738.484ZM748.291 267.032L748.713 276.595L753.709 276.374L753.287 266.812L748.291 267.032ZM753.168 278.04C758.504 271.327 765.376 268.016 773.992 268.016V263.016C763.858 263.016 755.543 267.017 749.254 274.929L753.168 278.04ZM773.992 268.016C781.561 268.016 786.829 270.137 790.269 273.985C793.76 277.889 795.753 283.993 795.82 292.746L800.82 292.707C800.747 283.319 798.615 275.818 793.997 270.652C789.328 265.43 782.501 263.016 773.992 263.016V268.016ZM795.82 292.727V343H800.82V292.727H795.82ZM798.32 340.5H785.312V345.5H798.32V340.5ZM787.812 343V292.656H782.812V343H787.812ZM787.812 292.635C787.763 286.837 786.428 282.046 783.331 278.774L779.7 282.211C781.572 284.189 782.768 287.507 782.813 292.678L787.812 292.635ZM783.348 278.791C780.257 275.463 775.634 274.055 770.055 274.055V279.055C774.881 279.055 777.899 280.272 779.684 282.193L783.348 278.791ZM770.055 274.055C765.364 274.055 761.148 275.315 757.504 277.887L760.387 281.972C763.118 280.044 766.308 279.055 770.055 279.055V274.055ZM757.504 277.887C753.957 280.391 751.202 283.676 749.245 287.694L753.74 289.884C755.345 286.59 757.558 283.969 760.387 281.972L757.504 277.887ZM748.992 288.789V343H753.992V288.789H748.992ZM751.492 340.5H738.484V345.5H751.492V340.5ZM740.984 343V266.922H735.984V343H740.984ZM738.484 269.422H750.789V264.422H738.484V269.422ZM824.336 334.281L822.525 336.005L822.531 336.011L824.336 334.281ZM818.922 284.5L816.675 283.403L816.672 283.411L818.922 284.5ZM831.016 270.578L832.371 272.679L832.376 272.676L831.016 270.578ZM879.18 308.688V311.188H881.68V308.688H879.18ZM827.641 308.688V306.188H825.077L825.141 308.75L827.641 308.688ZM834.18 326.898L832.321 328.57L832.329 328.58L832.338 328.589L834.18 326.898ZM870.25 323.523L871.786 321.551L869.806 320.009L868.272 321.995L870.25 323.523ZM878.195 329.711L880.291 331.074L881.543 329.15L879.731 327.738L878.195 329.711ZM834.672 281.969L836.495 283.679L836.5 283.674L836.505 283.668L834.672 281.969ZM828.062 298L825.581 297.696L825.238 300.5H828.062V298ZM866.172 298V300.5H868.672V298H866.172ZM866.172 297.016H868.672V296.945L868.668 296.874L866.172 297.016ZM860.828 281.688L858.944 283.33L858.949 283.336L858.954 283.342L860.828 281.688ZM849.508 341.906C839.799 341.906 832.087 338.756 826.141 332.551L822.531 336.011C829.522 343.306 838.591 346.906 849.508 346.906V341.906ZM826.147 332.558C820.21 326.319 817.133 317.915 817.133 307.07H812.133C812.133 318.914 815.525 328.649 822.525 336.005L826.147 332.558ZM817.133 307.07V304.68H812.133V307.07H817.133ZM817.133 304.68C817.133 297.453 818.5 291.108 821.172 285.589L816.672 283.411C813.625 289.704 812.133 296.812 812.133 304.68H817.133ZM821.168 285.597C823.891 280.019 827.628 275.74 832.371 272.679L829.66 268.478C824.09 272.073 819.765 277.074 816.675 283.403L821.168 285.597ZM832.376 272.676C837.185 269.556 842.34 268.016 847.891 268.016V263.016C841.348 263.016 835.252 264.85 829.655 268.481L832.376 272.676ZM847.891 268.016C857.176 268.016 864.11 271.042 869.04 276.899L872.866 273.679C866.827 266.505 858.386 263.016 847.891 263.016V268.016ZM869.04 276.899C874.012 282.806 876.68 291.475 876.68 303.273H881.68C881.68 290.79 878.863 280.804 872.866 273.679L869.04 276.899ZM876.68 303.273V308.688H881.68V303.273H876.68ZM879.18 306.188H827.641V311.188H879.18V306.188ZM825.141 308.75C825.341 316.72 827.674 323.401 832.321 328.57L836.039 325.227C832.342 321.115 830.316 315.655 830.14 308.625L825.141 308.75ZM832.338 328.589C837.05 333.72 843.072 336.289 850.211 336.289V331.289C844.413 331.289 839.747 329.264 836.021 325.207L832.338 328.589ZM850.211 336.289C855.143 336.289 859.496 335.281 863.15 333.131L860.615 328.822C857.895 330.422 854.466 331.289 850.211 331.289V336.289ZM863.15 333.131C866.628 331.086 869.654 328.383 872.228 325.052L868.272 321.995C866.065 324.851 863.513 327.117 860.615 328.822L863.15 333.131ZM868.714 325.496L876.659 331.683L879.731 327.738L871.786 321.551L868.714 325.496ZM876.1 328.347C870.234 337.362 861.503 341.906 849.508 341.906V346.906C863.012 346.906 873.407 341.653 880.291 331.074L876.1 328.347ZM847.891 273.703C841.946 273.703 836.875 275.914 832.838 280.269L836.505 283.668C839.594 280.336 843.335 278.703 847.891 278.703V273.703ZM832.849 280.258C828.819 284.553 826.468 290.453 825.581 297.696L830.544 298.304C831.344 291.766 833.4 286.978 836.495 283.679L832.849 280.258ZM828.062 300.5H866.172V295.5H828.062V300.5ZM868.672 298V297.016H863.672V298H868.672ZM868.668 296.874C868.273 289.912 866.378 284.195 862.702 280.033L858.954 283.342C861.653 286.398 863.321 290.9 863.676 297.157L868.668 296.874ZM862.713 280.045C858.99 275.774 853.953 273.703 847.891 273.703V278.703C852.703 278.703 856.292 280.288 858.944 283.33L862.713 280.045ZM931.07 278.594L930.659 281.06L933.57 281.545V278.594H931.07ZM907.305 289L904.999 288.033L904.805 288.497V289H907.305ZM907.305 343V345.5H909.805V343H907.305ZM894.297 343H891.797V345.5H894.297V343ZM894.297 266.922V264.422H891.797V266.922H894.297ZM906.953 266.922L909.452 266.862L909.394 264.422H906.953V266.922ZM907.164 275.711L904.665 275.771L904.864 284.079L909.282 277.04L907.164 275.711ZM931.07 266.5H933.57V264.955L932.188 264.264L931.07 266.5ZM931.481 276.128C929.358 275.774 927.086 275.602 924.672 275.602V280.602C926.851 280.602 928.845 280.757 930.659 281.06L931.481 276.128ZM924.672 275.602C920.052 275.602 915.984 276.587 912.603 278.709C909.208 280.839 906.69 284 904.999 288.033L909.61 289.967C910.966 286.734 912.866 284.446 915.26 282.944C917.669 281.433 920.76 280.602 924.672 280.602V275.602ZM904.805 289V343H909.805V289H904.805ZM907.305 340.5H894.297V345.5H907.305V340.5ZM896.797 343V266.922H891.797V343H896.797ZM894.297 269.422H906.953V264.422H894.297V269.422ZM904.454 266.982L904.665 275.771L909.663 275.651L909.452 266.862L904.454 266.982ZM909.282 277.04C913.104 270.949 918.363 268.016 925.305 268.016V263.016C916.59 263.016 909.756 266.879 905.047 274.382L909.282 277.04ZM925.305 268.016C927.691 268.016 929.153 268.337 929.952 268.736L932.188 264.264C930.362 263.351 927.981 263.016 925.305 263.016V268.016ZM928.57 266.5V278.594H933.57V266.5H928.57Z" fill="#1C6E8C" fill-opacity="0.45"/>
</svg>
